<?xml version="1.0" standalone="no"?>
<!DOCTYPE svg PUBLIC "-//W3C//DTD SVG 20010904//EN"
 "http://www.w3.org/TR/2001/REC-SVG-20010904/DTD/svg10.dtd">
<svg version="1.0" xmlns="http://www.w3.org/2000/svg"
 width="512.000000pt" height="512.000000pt" viewBox="0 0 512.000000 512.000000"
 preserveAspectRatio="xMidYMid meet">
<metadata>
Created by potrace 1.14, written by Peter Selinger 2001-2017
</metadata>
<g transform="translate(0.000000,512.000000) scale(0.100000,-0.100000)"
fill="#000000" stroke="none">
<path d="M339 5105 c-109 -27 -242 -130 -284 -220 -54 -117 -50 -38 -52 -950
-2 -687 0 -848 11 -885 49 -161 146 -263 299 -315 l76 -25 813 0 c871 0 860 0
964 51 63 31 164 131 193 192 51 106 50 96 51 953 0 487 -4 820 -10 852 -22
120 -128 261 -233 311 -106 51 -95 51 -962 50 -649 0 -821 -3 -866 -14z m942
-617 c70 -39 74 -51 77 -250 l4 -176 176 -4 c199 -3 211 -7 250 -77 27 -48 28
-90 2 -141 -35 -69 -71 -80 -265 -80 l-165 0 0 -159 c0 -174 -8 -211 -52 -253
-51 -48 -148 -47 -199 2 -42 40 -49 73 -49 245 l0 165 -165 0 c-192 0 -224 10
-263 78 -28 50 -28 84 -1 139 35 73 67 83 264 83 l165 0 0 166 c0 192 8 220
74 259 51 31 97 32 147 3z"/>
<path d="M3050 5106 c-161 -46 -294 -181 -329 -337 -7 -28 -10 -349 -11 -859
0 -871 -1 -844 51 -954 31 -66 131 -167 194 -196 114 -51 94 -50 960 -50 503
1 827 5 854 11 151 34 278 152 330 305 19 57 19 89 20 879 0 527 -3 836 -10
865 -34 150 -153 277 -306 329 -56 19 -92 19 -883 19 -633 0 -835 -3 -870 -12z
m1396 -1071 c99 -58 95 -203 -7 -256 -36 -18 -62 -19 -521 -19 -453 0 -486 2
-525 19 -80 37 -107 149 -54 218 50 64 37 62 575 63 l489 0 43 -25z"/>
<path d="M345 2396 c-115 -28 -220 -106 -280 -207 -66 -114 -65 -89 -65 -985
1 -484 4 -826 10 -851 35 -151 147 -273 310 -335 52 -20 1672 -24 1745 -4 159
42 273 149 321 301 l24 76 0 812 c0 878 0 862 -55 970 -32 63 -128 157 -190
187 -104 50 -94 50 -960 49 -603 -1 -823 -4 -860 -13z m622 -740 c16 -8 76
-64 136 -124 l107 -109 113 113 c66 67 129 120 151 129 124 52 248 -85 185
-205 -10 -19 -66 -82 -124 -139 -58 -57 -105 -107 -105 -111 0 -3 49 -55 109
-115 59 -61 113 -119 119 -131 64 -123 -57 -261 -184 -209 -24 10 -82 58 -152
129 l-113 113 -107 -110 c-117 -119 -162 -148 -226 -141 -96 9 -158 112 -121
200 8 20 64 86 125 147 60 60 110 113 110 117 0 4 -51 59 -114 121 -92 92
-116 122 -125 157 -36 130 96 232 216 168z"/>
<path d="M3099 2406 c-2 -2 -21 -7 -42 -10 -54 -9 -141 -53 -195 -100 -59 -53
-105 -126 -131 -210 -21 -67 -21 -83 -21 -880 0 -703 2 -820 15 -867 46 -160
154 -271 315 -321 51 -16 121 -18 895 -15 l840 2 76 36 c88 42 146 91 194 163
74 113 70 56 73 981 2 898 4 873 -51 985 -27 57 -128 158 -187 188 -103 52
-94 52 -966 52 -446 0 -813 -2 -815 -4z m1341 -766 c45 -23 80 -80 80 -130 0
-50 -35 -107 -80 -130 -40 -20 -53 -21 -538 -18 l-498 3 -29 23 c-38 29 -64
78 -64 117 -1 52 33 112 76 134 37 19 56 20 526 21 470 0 489 -1 527 -20z m17
-609 c34 -25 63 -84 63 -127 0 -44 -37 -102 -80 -124 -38 -19 -58 -20 -525
-20 -467 0 -487 1 -525 20 -45 23 -80 81 -80 132 0 44 40 107 81 129 32 17 68
18 534 16 l500 -2 32 -24z"/>
</g>
</svg>
